<svg width="335" height="152" viewBox="0 0 335 152" fill="none" xmlns="http://www.w3.org/2000/svg">
<path d="M248.564 1.58828L38.6844 0.0336217C25.1534 -0.0666085 18.3878 -0.116724 13.2153 2.48514C8.66578 4.77358 4.96218 8.44985 2.64011 12.9822C0 18.1354 0 24.9011 0 38.4326V112.847C0 126.288 0 133.009 2.61584 138.143C4.9168 142.659 8.58834 146.33 13.1042 148.631C18.2381 151.247 24.9587 151.247 38.4 151.247H296.6C310.041 151.247 316.762 151.247 321.896 148.631C326.412 146.33 330.083 142.659 332.384 138.143C335 133.009 335 126.288 335 112.847V80.5021C335 73.9134 335 70.619 334.231 67.927C332.333 61.2807 327.138 56.0855 320.492 54.1875C317.8 53.4187 314.505 53.4187 307.917 53.4187H300.235C298.16 53.4187 297.122 53.4187 296.246 53.3638C282.163 52.4798 270.939 41.2553 270.055 27.1728C270 26.2966 270 25.2591 270 23.184C270 21.7116 270 20.9754 269.961 20.3525C269.336 10.3452 261.397 2.34744 251.395 1.64817C250.772 1.60464 250.036 1.59919 248.564 1.58828Z" fill="white" fill-opacity="0.1"/>
</svg>
