<svg preserveAspectRatio="none" width="100%" height="100%" overflow="visible" style="display: block;" viewBox="0 0 563.492 76.8408" fill="none" xmlns="http://www.w3.org/2000/svg">
<path id="Vector 85" d="M563.217 54.462L525.217 51.462L462.717 38.462L379.712 18.0836C379.387 18.0038 379.048 18.0068 378.724 18.0924L335.968 29.3956C335.801 29.4397 335.63 29.462 335.457 29.462H292.771C292.408 29.462 292.053 29.5606 291.742 29.7471L277.563 38.2542C277.335 38.3914 277.088 38.4804 276.824 38.5184C267.359 39.88 248.795 42.8842 247.217 44.462C245.748 45.9306 241.921 53.6889 239.756 58.3046C239.424 59.0108 238.717 59.462 237.937 59.462H212.522C212.32 59.462 212.119 59.4313 211.926 59.371L196.729 54.6221C196.394 54.5172 196.092 54.3259 195.854 54.0672L173.452 29.717C173.296 29.5483 173.113 29.4075 172.91 29.3008L134.523 9.12277C134.32 9.01641 134.101 8.94552 133.875 8.91319L96.1234 3.5201C95.8553 3.4818 95.5821 3.49835 95.3206 3.56877L57.0889 13.8619C56.8432 13.9281 56.6124 14.0405 56.4089 14.1931L30.8817 33.3385C30.7722 33.4207 30.6714 33.5138 30.581 33.6165L12.4285 54.2219C12.2884 54.381 12.1745 54.5613 12.091 54.7562L3.21701 75.462" stroke="var(--stroke-0, #1B3A3F)" stroke-width="7" stroke-dasharray="3 3"/>
</svg>
