<svg width="275" height="264" viewBox="0 0 275 264" fill="none" xmlns="http://www.w3.org/2000/svg">
<path id="Vector 88" d="M155.575 0H51.2C33.2783 0 24.3175 0 17.4723 3.48779C11.4511 6.55574 6.55574 11.4511 3.48779 17.4723C0 24.3175 0 33.2783 0 51.2V212.8C0 230.722 0 239.683 3.48779 246.528C6.55574 252.549 11.4511 257.444 17.4723 260.512C24.3175 264 33.2783 264 51.2 264H223.8C241.722 264 250.683 264 257.528 260.512C263.549 257.444 268.444 252.549 271.512 246.528C275 239.683 275 230.722 275 212.8V109.85C275 99.619 275 94.5037 273.841 90.315C270.841 79.4767 262.373 71.0083 251.535 68.0089C247.346 66.8498 242.231 66.8498 232 66.8498H222.425C221.102 66.8498 220.44 66.8498 219.881 66.8302C203.086 66.2426 189.607 52.7636 189.02 35.9687C189 35.4094 189 34.7479 189 33.4249C189 32.1019 189 31.4404 188.98 30.8811C188.393 14.0862 174.914 0.607157 158.119 0.0195665C157.56 0 156.898 0 155.575 0Z" fill="white"/>
</svg>
