<svg  width="100%" height="100%" overflow="visible" style="display: block;" viewBox="0 0 145 145" fill="none" xmlns="http://www.w3.org/2000/svg">
<g id="logo">
<path id="Vector" d="M62.3364 77.2425V62.3359H71.8622V64.6997H64.8039V77.2425H62.3364ZM74.3447 77.2425V62.3359H79.9266C81.5715 62.3359 82.8793 62.7901 83.8502 63.6987C84.821 64.6073 85.3062 65.8282 85.3062 67.3616C85.3062 68.9657 84.7669 70.215 83.6883 71.1094C82.6233 72.0038 81.2749 72.4509 79.6435 72.4509H76.8322V77.2425H74.3447ZM76.8322 70.0874H79.7244C80.6547 70.0874 81.3962 69.8388 81.949 69.3419C82.5018 68.845 82.7782 68.192 82.7782 67.3828C82.7782 66.5309 82.5018 65.8779 81.949 65.4237C81.4097 64.9553 80.6682 64.721 79.7244 64.721H76.8322V70.0874ZM87.854 77.2425V62.3359H90.3011V73.2176L97.4605 62.3359H99.7863V77.2425H97.3392V66.382L90.2 77.2425H87.854ZM103.457 77.2425V62.3359H105.944V68.5327H112.699V62.3359H115.187V77.2425H112.699V70.9603H105.944V77.2425H103.457Z" fill="var(--fill-0, white)"/>
<path id="Vector_2" d="M62.3365 94.6127V80.2003H67.9356C69.5856 80.2003 70.8976 80.6397 71.8713 81.5182C72.8451 82.3966 73.3319 83.577 73.3319 85.0594C73.3319 86.6103 72.7909 87.8182 71.709 88.6829C70.6406 89.5479 69.2881 89.9802 67.6517 89.9802H64.8317V94.6127H62.3365ZM64.8317 87.6948H67.7328C68.666 87.6948 69.4099 87.4545 69.9642 86.974C70.5188 86.4936 70.796 85.8622 70.796 85.0799C70.796 84.2565 70.5188 83.6251 69.9642 83.1857C69.4233 82.7329 68.6795 82.5063 67.7328 82.5063H64.8317V87.6948ZM87.9987 92.6772C86.5922 94.1323 84.8137 94.8598 82.6632 94.8598C80.5129 94.8598 78.741 94.139 77.3481 92.6978C75.9551 91.2567 75.2585 89.4928 75.2585 87.4064C75.2585 85.3475 75.9617 83.5906 77.3683 82.1358C78.7748 80.6808 80.5533 79.9532 82.7038 79.9532C84.8541 79.9532 86.626 80.674 88.019 82.1152C89.4119 83.5563 90.1085 85.3202 90.1085 87.4064C90.1085 89.4655 89.4053 91.2222 87.9987 92.6772ZM79.2349 91.0507C80.1545 92.0391 81.3109 92.5331 82.7038 92.5331C84.0968 92.5331 85.2397 92.0391 86.1322 91.0507C87.0384 90.0626 87.4915 88.8477 87.4915 87.4064C87.4915 85.9789 87.0317 84.7712 86.1119 83.7828C85.2059 82.7809 84.0564 82.2797 82.6632 82.2797C81.2702 82.2797 80.1207 82.7739 79.2144 83.7623C78.3219 84.7504 77.8755 85.9654 77.8755 87.4064C77.8755 88.8341 78.3286 90.0488 79.2349 91.0507ZM93.1233 94.6127V80.2003H95.6185V87.4477L102.374 80.2003H105.437L99.5339 86.3977L105.701 94.6127H102.678L97.8299 88.1271L95.6185 90.4331V94.6127H93.1233Z" fill="var(--fill-0, white)"/>
<path id="Vector_3" d="M16.2617 14.9062H83.901L127.383 55.5784H56.9832V134.159L16.2617 97.4351V14.9062Z" fill="var(--fill-0, white)"/>
</g>
</svg>
