<svg width="293" height="146" viewBox="0 0 293 146" fill="none" xmlns="http://www.w3.org/2000/svg">
<path id="Vector" d="M126.525 1C126.48 1 126.434 1 122.813 14.7641C120.329 24.2076 116.161 40.1305 112.519 53.951M112.519 53.951C110.852 60.2739 109.295 66.1568 108.059 70.7779C103.82 86.6249 103.03 88.7756 102.492 91.4952C100.299 102.563 98.4242 114.803 98.064 118.953C97.7994 122.002 97.7578 125.507 97.1725 126.367C94.7353 129.949 95.694 112.063 95.2424 101.097C94.968 94.4347 92.9824 89.9949 90.4659 85.8401C88.2116 82.1182 84.1497 78.0932 77.1136 72.5041C72.8464 69.1144 66.1766 65.9623 60.4714 63.5149C58.7385 62.7716 57.09 62.1341 55.4037 61.5828M112.519 53.951C94.6535 56.475 72.7292 59.4573 55.4037 61.5828M112.519 53.951C119.304 52.9923 125.505 52.0996 130.645 51.3452C151.901 48.2253 153.832 47.6348 153.694 47.553C153.556 47.4712 151.29 47.916 148.956 48.3744M55.4037 61.5828C51.538 60.319 47.4734 59.5077 41.7385 58.9102C33.5018 58.0521 21.9646 57.6745 15.3729 57.6425C7.47932 57.6042 5.09483 58.7342 3.08682 59.8495C2.07729 60.4102 1.31034 61.326 1.07278 62.1333C0.835218 62.9407 1.20739 63.7054 2.04697 64.2618C2.88656 64.8183 4.18229 65.1433 8.9908 65.303C13.7993 65.4626 22.0813 65.4471 46.0414 62.6976C48.9543 62.3634 52.0951 61.9887 55.4037 61.5828ZM130.662 24.0079C130.662 24.0976 130.662 24.1873 129.743 29.3772C128.824 34.5672 126.985 44.8548 123.004 60.7666C119.024 76.6785 112.957 97.9028 109.472 111.895C105.988 125.888 105.27 132.005 104.901 136.591C104.531 141.177 104.531 144.045 104.531 147M121.843 65.7019C123.155 64.4509 126.8 61.3842 130.754 57.2776C134.569 53.3167 136.172 48.5377 136.177 48.7321C136.219 50.6738 133.7 53.4895 132.315 57.1384C130.973 60.6736 130.911 63.6066 130.994 65.3113C131.056 66.6044 131.75 67.5225 132.513 68.2268C133.274 68.9288 134.346 68.892 135.434 68.7328C138.915 68.2231 140.707 65.9902 146.236 60.0858C149.738 56.345 151.068 53.5039 151.21 53.0257C152.05 50.1906 148.426 62.8761 148.482 65.6477C148.491 66.0785 148.782 66.3555 149.08 66.5067C149.726 66.8338 151.373 66.19 155.488 63.7437C158.541 61.929 163.14 58.2909 165.86 56.158C167.361 54.9808 168.479 53.8759 169.36 52.8292M169.36 52.8292C170.489 51.4883 171.228 50.2429 171.884 49.0637C172.212 48.4734 171.66 48.6855 171.326 48.9726C170.841 49.3888 170.261 50.5981 169.36 52.8292ZM169.36 52.8292C169.139 53.3773 168.898 53.9871 168.635 54.6619C166.798 59.3738 166.306 63.7652 166.228 65.8072C166.202 66.4654 166.628 66.3387 166.944 66.0478C167.657 65.3922 168.804 63.9718 172.14 61.5071C178.089 57.1137 182.725 54.9038 183.365 54.3505C183.665 54.0911 183.872 53.8273 183.521 54.5459C181.47 58.7352 179.663 62.7305 178.161 66.5842M178.161 66.5842C177.891 67.2786 177.63 67.9684 177.38 68.6539C177.113 69.3835 177.07 69.8119 177.87 69.369C178.444 69.0508 179.483 68.2851 182.023 66.0638M178.161 66.5842C170.635 67.5984 163.769 68.5221 158.027 69.2889C150.349 70.3144 144.684 71.0591 140.489 71.5996M178.161 66.5842C179.431 66.4132 180.719 66.2396 182.023 66.0638M182.023 66.0638C183.018 65.194 184.243 64.1011 185.76 62.7246C190.811 58.143 199.059 50.4538 204.426 45.2884M182.023 66.0638C187.279 65.3553 192.803 64.6102 198.45 63.8495M204.426 45.2884C204.789 44.9382 205.14 44.5996 205.475 44.2744C210.759 39.1518 212.015 37.5977 213.204 35.705C214.393 33.8123 215.477 31.628 216.575 28.6432C217.672 25.6583 218.751 21.939 219.403 18.3573C220.65 11.506 220.376 7.58887 220.078 6.95996C219.947 6.68236 219.47 6.77824 218.84 7.31513C218.211 7.85203 217.345 8.90095 216.636 9.88001C215.928 10.8591 215.404 11.7365 209.759 28.9141C208.275 33.4305 206.437 39.0719 204.426 45.2884ZM204.426 45.2884C202.538 51.1206 200.497 57.459 198.45 63.8495M198.45 63.8495C196.523 69.8664 194.59 75.9294 192.775 81.6595M198.45 63.8495C223.704 60.4474 251.42 56.7306 268.585 54.5631C296.191 51.0771 294.843 51.8254 293.338 52.5462C291.833 53.2671 290.212 53.9378 288.542 54.6289M192.775 81.6595C190.758 88.0281 188.886 93.9854 187.329 99.0109C181.296 118.479 180.306 122.95 179.61 126.708C178.381 133.344 178.159 138.081 178.265 140.52C178.297 141.252 178.583 140.93 179.559 138.011C180.534 135.093 182.265 129.581 184.408 124.179C186.551 118.776 189.052 113.65 191.218 108.509C193.384 103.369 195.138 98.3699 196.042 95.0946C197.309 90.5053 196.675 87.7943 195.907 85.5547C195.364 83.9711 194.156 82.7893 192.775 81.6595ZM192.775 81.6595C192.261 81.2384 191.723 80.8246 191.186 80.3998C188.636 78.3826 184.389 76.6917 177.838 74.8265C173.857 73.6929 168.353 72.9121 160.499 72.3246C154.157 71.8501 146.359 71.6392 140.489 71.5996M140.489 71.5996C139.091 71.5901 137.802 71.5904 136.668 71.5992C129.377 71.6555 127.42 72.4404 126.829 72.8069C126.7 72.8871 127.188 72.9902 127.992 73.0128C128.577 73.0293 129.357 73.0338 140.489 71.5996Z" stroke="var(--stroke-0, white)" stroke-width="2" stroke-linecap="round"/>
</svg>
