<svg width="335" height="152" viewBox="0 0 335 152" fill="none" xmlns="http://www.w3.org/2000/svg">
<path d="M248.564 1.58877L38.6844 0.03411C25.1534 -0.0661202 18.3878 -0.116235 13.2153 2.48563C8.66578 4.77407 4.96218 8.45034 2.64011 12.9827C0 18.1359 0 24.9016 0 38.4331V112.848C0 126.289 0 133.009 2.61584 138.143C4.9168 142.659 8.58834 146.331 13.1042 148.632C18.2381 151.248 24.9587 151.248 38.4 151.248H296.6C310.041 151.248 316.762 151.248 321.896 148.632C326.412 146.331 330.083 142.659 332.384 138.143C335 133.009 335 126.289 335 112.848V80.5026C335 73.9139 335 70.6195 334.231 67.9275C332.333 61.2812 327.138 56.0859 320.492 54.188C317.8 53.4192 314.505 53.4192 307.917 53.4192H300.235C298.16 53.4192 297.122 53.4192 296.246 53.3642C282.163 52.4803 270.939 41.2558 270.055 27.1733C270 26.2971 270 25.2596 270 23.1845C270 21.7121 270 20.9759 269.961 20.353C269.336 10.3457 261.397 2.34793 251.395 1.64866C250.772 1.60513 250.036 1.59968 248.564 1.58877Z" fill="white"/>
</svg>
