<svg width="80" height="80" viewBox="0 0 80 80" fill="none" xmlns="http://www.w3.org/2000/svg">
<g id="logo">
<path id="Vector" d="M34.3926 42.6168V34.3925H39.6482V35.6967H35.754V42.6168H34.3926ZM41.0179 42.6168V34.3925H44.0975C45.005 34.3925 45.7266 34.6431 46.2622 35.1444C46.7979 35.6457 47.0656 36.3193 47.0656 37.1653C47.0656 38.0503 46.768 38.7396 46.1729 39.233C45.5853 39.7265 44.8414 39.9732 43.9413 39.9732H42.3903V42.6168H41.0179ZM42.3903 38.6692H43.9859C44.4992 38.6692 44.9083 38.532 45.2133 38.2579C45.5183 37.9837 45.6708 37.6234 45.6708 37.177C45.6708 36.707 45.5183 36.3467 45.2133 36.0961C44.9158 35.8377 44.5067 35.7084 43.9859 35.7084H42.3903V38.6692ZM48.4712 42.6168V34.3925H49.8214V40.3962L53.7714 34.3925H55.0546V42.6168H53.7045V36.6248L49.7656 42.6168H48.4712ZM57.0796 42.6168V34.3925H58.4521V37.8114H62.1789V34.3925H63.5515V42.6168H62.1789V39.1508H58.4521V42.6168H57.0796Z" fill="var(--fill-0, white)"/>
<path id="Vector_2" d="M34.3926 52.2001V44.2485H37.4817C38.3921 44.2485 39.1159 44.4909 39.6531 44.9755C40.1904 45.4602 40.459 46.1115 40.459 46.9293C40.459 47.785 40.1605 48.4514 39.5636 48.9285C38.9741 49.4057 38.2279 49.6443 37.3251 49.6443H35.7692V52.2001H34.3926ZM35.7692 48.3833H37.3698C37.8847 48.3833 38.2951 48.2508 38.601 47.9857C38.9069 47.7206 39.0599 47.3723 39.0599 46.9406C39.0599 46.4863 38.9069 46.138 38.601 45.8956C38.3025 45.6457 37.8922 45.5207 37.3698 45.5207H35.7692V48.3833ZM48.551 51.1323C47.775 51.9351 46.7937 52.3364 45.6073 52.3364C44.4209 52.3364 43.4433 51.9388 42.6748 51.1436C41.9062 50.3486 41.5219 49.3754 41.5219 48.2242C41.5219 47.0883 41.9099 46.119 42.686 45.3163C43.462 44.5135 44.4432 44.1121 45.6297 44.1121C46.8161 44.1121 47.7936 44.5098 48.5622 45.305C49.3307 46.1 49.7151 47.0732 49.7151 48.2242C49.7151 49.3603 49.327 50.3295 48.551 51.1323ZM43.7158 50.2349C44.2232 50.7802 44.8612 51.0527 45.6297 51.0527C46.3982 51.0527 47.0288 50.7802 47.5212 50.2349C48.0212 49.6897 48.2712 49.0194 48.2712 48.2242C48.2712 47.4366 48.0175 46.7703 47.51 46.225C47.0101 45.6722 46.3759 45.3957 45.6073 45.3957C44.8387 45.3957 44.2045 45.6684 43.7045 46.2137C43.2121 46.7589 42.9658 47.4292 42.9658 48.2242C42.9658 49.0119 43.2158 49.6821 43.7158 50.2349ZM51.3784 52.2001V44.2485H52.755V48.247L56.4823 44.2485H58.1723L54.9153 47.6677L58.3178 52.2001H56.6501L53.9751 48.6219L52.755 49.8941V52.2001H51.3784Z" fill="var(--fill-0, white)"/>
<path id="Vector_3" d="M8.97168 8.2243H46.2899L70.2801 30.6641H31.4387V74.0187L8.97168 53.7574V8.2243Z" fill="var(--fill-0, white)"/>
</g>
</svg>
