<svg preserveAspectRatio="none" width="100%" height="100%" overflow="visible" style="display: block;" viewBox="0 0 335 151.248" fill="none" xmlns="http://www.w3.org/2000/svg">
<path id="Vector 88" d="M248.564 1.58875L38.6844 0.0340855C25.1534 -0.0661447 18.3878 -0.11626 13.2153 2.48561C8.66578 4.77404 4.96218 8.45031 2.64011 12.9827C0 18.1359 0 24.9016 0 38.433V112.848C0 126.289 0 133.009 2.61584 138.143C4.9168 142.659 8.58834 146.331 13.1042 148.632C18.2381 151.248 24.9587 151.248 38.4 151.248H296.6C310.041 151.248 316.762 151.248 321.896 148.632C326.412 146.331 330.083 142.659 332.384 138.143C335 133.009 335 126.289 335 112.848V80.5025C335 73.9139 335 70.6195 334.231 67.9274C332.333 61.2811 327.138 56.0859 320.492 54.188C317.8 53.4192 314.505 53.4192 307.917 53.4192H300.235C298.16 53.4192 297.122 53.4192 296.246 53.3642C282.163 52.4803 270.939 41.2557 270.055 27.1732C270 26.2971 270 25.2595 270 23.1844C270 21.712 270 20.9758 269.961 20.353C269.336 10.3456 261.397 2.3479 251.395 1.64863C250.772 1.60511 250.036 1.59965 248.564 1.58875Z" fill="var(--fill-0, white)" fill-opacity="1"/>
</svg>
