<svg preserveAspectRatio="none" width="100%" height="100%" overflow="visible" style="display: block;" viewBox="0 0 54.8112 228.723" fill="none" xmlns="http://www.w3.org/2000/svg">
<path id="Vector 68" d="M53.5592 228.717C53.8322 228.759 54.0872 228.571 54.1287 228.298L54.8054 223.849C54.847 223.576 54.6593 223.321 54.3863 223.28C54.1133 223.238 53.8583 223.426 53.8168 223.699L53.2153 227.653L49.2608 227.052C48.9878 227.01 48.7328 227.198 48.6913 227.471C48.6497 227.744 48.8374 227.999 49.1104 228.041L53.5592 228.717ZM53.6344 228.223L54.0371 227.927C39.4699 208.133 19.5996 164.928 8.7859 119.814C3.3804 97.262 0.244547 74.2593 1.15683 53.4874C2.06933 32.7107 7.02938 14.2133 17.7679 0.619891L17.3756 0.309945L16.9832 0C6.06539 13.8203 1.07527 32.5533 0.157796 53.4435C-0.759888 74.3384 2.39449 97.4389 7.81345 120.047C18.6486 165.251 38.5641 208.589 53.2317 228.519L53.6344 228.223Z" fill="var(--stroke-0, white)"/>
</svg>
