<svg preserveAspectRatio="none" width="100%" height="100%" overflow="visible" style="display: block;" viewBox="0 0 88.6909 315.926" fill="none" xmlns="http://www.w3.org/2000/svg">
<path id="Vector 68" d="M43.4766 315.497C43.5157 315.77 43.769 315.96 44.0423 315.921L48.4971 315.285C48.7705 315.246 48.9604 314.992 48.9213 314.719C48.8823 314.446 48.629 314.256 48.3556 314.295L44.3958 314.861L43.83 310.901C43.7909 310.627 43.5377 310.438 43.2643 310.477C42.9909 310.516 42.801 310.769 42.8401 311.042L43.4766 315.497ZM43.9716 315.426L44.3716 315.726C81.2913 266.496 94.4982 214.497 86.3973 161.318C78.2988 108.154 48.9137 53.8607 0.745399 0L0.372699 0.333309L0 0.666619C48.0887 54.4384 77.349 108.559 85.4087 161.468C93.466 214.361 80.3438 266.093 43.5716 315.126L43.9716 315.426Z" fill="var(--stroke-0, white)"/>
</svg>
