<svg preserveAspectRatio="none" width="100%" height="100%" overflow="visible" style="display: block;" viewBox="0 0 69.7093 325.078" fill="none" xmlns="http://www.w3.org/2000/svg">
<path id="Vector 67" d="M68.2959 325.069C68.5674 325.12 68.8283 324.94 68.8788 324.669L69.7008 320.245C69.7512 319.973 69.572 319.712 69.3005 319.662C69.029 319.611 68.768 319.791 68.7176 320.062L67.9869 323.995L64.0542 323.264C63.7827 323.214 63.5218 323.393 63.4713 323.664C63.4209 323.936 63.6001 324.197 63.8716 324.247L68.2959 325.069ZM68.3872 324.578L68.7994 324.295C34.3007 274.052 10.5596 208.444 3.32246 147.727C-3.91842 86.9794 5.37644 31.2865 36.7436 0.716144L36.3946 0.358072L36.0457 0C4.33421 30.9059 -4.92192 87.0094 2.32949 147.846C9.58463 208.713 33.3792 274.477 67.975 324.861L68.3872 324.578Z" fill="var(--stroke-0, white)"/>
</svg>
