<svg preserveAspectRatio="none" width="100%" height="100%" overflow="visible" style="display: block;" viewBox="0 0 176.271 437.549" fill="none" xmlns="http://www.w3.org/2000/svg">
<path id="Vector 68" d="M175.816 437.144C176.091 437.119 176.294 436.876 176.269 436.601L175.865 432.119C175.84 431.844 175.597 431.641 175.322 431.666C175.047 431.69 174.844 431.933 174.869 432.209L175.228 436.192L171.244 436.551C170.969 436.576 170.766 436.819 170.791 437.094C170.816 437.369 171.059 437.572 171.334 437.547L175.816 437.144ZM175.771 436.646L176.091 436.262C91.7881 365.889 42.5981 279.515 18.8265 199.422C-4.94996 119.313 -3.2847 45.5361 14.0543 0.358311L13.5875 0.179156L13.1207 0C-4.32076 45.4447 -5.94964 119.459 17.8678 199.707C41.6901 279.97 90.982 366.519 175.45 437.029L175.771 436.646Z" fill="var(--stroke-0, white)"/>
</svg>
