<svg preserveAspectRatio="none" width="100%" height="100%" overflow="visible" style="display: block;" viewBox="0 0 166.677 264.687" fill="none" xmlns="http://www.w3.org/2000/svg">
<path id="Vector 68" d="M166.425 262.385C166.665 262.248 166.748 261.942 166.611 261.702L164.375 257.797C164.238 257.557 163.932 257.474 163.693 257.612C163.453 257.749 163.37 258.054 163.507 258.294L165.494 261.765L162.023 263.753C161.783 263.89 161.7 264.195 161.837 264.435C161.974 264.675 162.28 264.758 162.52 264.62L166.425 262.385ZM166.177 261.951L166.308 261.468C110.785 246.371 63.1642 207.588 33.4883 159.307C3.81224 111.025 -7.89273 53.2888 8.33935 0.29286L7.86127 0.14643L7.38319 0C-8.94991 53.3258 2.84319 111.358 32.6363 159.83C62.4296 208.303 110.249 247.262 166.045 262.433L166.177 261.951Z" fill="var(--stroke-0, white)"/>
</svg>
