<svg preserveAspectRatio="none" width="100%" height="100%" overflow="visible" style="display: block;" viewBox="0 0 92.703 239.91" fill="none" xmlns="http://www.w3.org/2000/svg">
<path id="Vector 68" d="M92.2084 239.862C92.4845 239.859 92.706 239.633 92.703 239.357L92.6551 234.857C92.6521 234.581 92.4259 234.359 92.1498 234.362C91.8736 234.365 91.6522 234.591 91.6551 234.867L91.6977 238.867L87.698 238.91C87.4218 238.913 87.2004 239.139 87.2033 239.415C87.2063 239.691 87.4325 239.913 87.7086 239.91L92.2084 239.862ZM92.203 239.362L92.5528 239.005C68.3217 215.284 37.8963 169.291 18.9431 122.376C9.46773 98.9213 2.87127 75.2646 1.33994 54.0686C-0.191752 32.8674 3.34751 14.1901 14.0678 0.619891L13.6754 0.309945L13.2831 0C2.34696 13.8435 -1.19851 32.81 0.342542 54.1406C1.88396 75.4763 8.5177 99.2393 18.0159 122.75C37.0096 169.765 67.5044 215.884 91.8533 239.719L92.203 239.362Z" fill="var(--stroke-0, white)"/>
</svg>
