<svg preserveAspectRatio="none" width="100%" height="100%" overflow="visible" style="display: block;" viewBox="0 0 128.087 179.166" fill="none" xmlns="http://www.w3.org/2000/svg">
<path id="Vector 68" d="M127.836 176.864C128.075 176.727 128.158 176.422 128.021 176.182L125.786 172.277C125.648 172.037 125.343 171.954 125.103 172.091C124.864 172.228 124.781 172.534 124.918 172.773L126.905 176.245L123.433 178.232C123.194 178.369 123.111 178.675 123.248 178.914C123.385 179.154 123.691 179.237 123.93 179.1L127.836 176.864ZM127.587 176.43L127.718 175.948C72.0639 160.815 35.1566 143.359 16.185 116.519C-2.76128 89.7154 -3.91072 53.4068 12.3575 0.29286L11.8794 0.14643L11.4014 0C-4.8956 53.2078 -3.85073 89.9066 15.3684 117.097C34.5622 144.251 71.7914 161.777 127.456 176.913L127.587 176.43Z" fill="var(--stroke-0, white)"/>
</svg>
