<svg preserveAspectRatio="none" width="100%" height="100%" overflow="visible" style="display: block;" viewBox="0 0 115.428 312.523" fill="none" xmlns="http://www.w3.org/2000/svg">
<path id="Vector 68" d="M114.968 312.163C115.243 312.141 115.448 311.9 115.426 311.625L115.067 307.139C115.045 306.864 114.804 306.658 114.529 306.681C114.254 306.703 114.048 306.944 114.07 307.219L114.389 311.206L110.402 311.525C110.127 311.547 109.922 311.788 109.944 312.063C109.966 312.339 110.207 312.544 110.482 312.522L114.968 312.163ZM114.928 311.665L115.252 311.284C57.4378 262.036 23.2545 197.999 8.932 139.436C1.77083 110.155 -0.422293 82.2538 1.87174 58.2648C4.16646 34.2686 10.9468 14.2254 21.695 0.619891L21.3026 0.309945L20.9103 0C10.002 13.8082 3.18183 34.0603 0.876284 58.1696C-1.42995 82.2861 0.776969 110.301 7.96063 139.674C22.3278 198.42 56.6134 262.647 114.603 312.045L114.928 311.665Z" fill="var(--stroke-0, white)"/>
</svg>
