<svg preserveAspectRatio="none" width="100%" height="100%" overflow="visible" style="display: block;" viewBox="0 0 138.021 193.941" fill="none" xmlns="http://www.w3.org/2000/svg">
<path id="Vector 68" d="M137.762 191.709C138.004 191.576 138.092 191.272 137.959 191.03L135.789 187.087C135.656 186.845 135.352 186.757 135.11 186.89C134.868 187.024 134.78 187.328 134.913 187.57L136.842 191.074L133.338 193.003C133.096 193.136 133.008 193.44 133.141 193.682C133.274 193.924 133.578 194.012 133.82 193.879L137.762 191.709ZM137.521 191.271L137.66 190.79C62.4833 168.992 24.5706 137.997 9.34311 104.233C-5.88424 70.4684 1.50329 33.7795 17.2934 0.427909L16.8415 0.213955L16.3896 0C0.54317 33.4705 -6.9699 70.4935 8.43152 104.644C23.8328 138.794 62.0782 169.916 137.382 191.751L137.521 191.271Z" fill="var(--stroke-0, white)"/>
</svg>
