<svg preserveAspectRatio="none" width="100%" height="100%" overflow="visible" style="display: block;" viewBox="0 0 71.9222 191.695" fill="none" xmlns="http://www.w3.org/2000/svg">
<path id="Vector 67" d="M71.5782 190.265C71.8405 190.179 71.9833 189.896 71.8971 189.634L70.4927 185.359C70.4065 185.096 70.1239 184.954 69.8616 185.04C69.5992 185.126 69.4564 185.409 69.5426 185.671L70.791 189.471L66.9908 190.719C66.7285 190.806 66.5857 191.088 66.6719 191.351C66.758 191.613 67.0406 191.756 67.3029 191.67L71.5782 190.265ZM71.4221 189.79L71.6476 189.344C37.5235 172.096 12.6569 140.227 4.177 105.026C-4.29919 69.8396 3.5942 31.3226 34.9984 0.716144L34.6494 0.358072L34.3005 0C2.62601 30.8699 -5.34808 69.7554 3.20481 105.26C11.754 140.749 36.8131 172.857 71.1966 190.236L71.4221 189.79Z" fill="var(--stroke-0, white)"/>
</svg>
