<svg preserveAspectRatio="none" width="100%" height="100%" overflow="visible" style="display: block;" viewBox="0 0 411.169 350" fill="none" xmlns="http://www.w3.org/2000/svg">
<path id="Vector 88" d="M224.02 0H51.2C33.2783 0 24.3175 0 17.4723 3.48779C11.4511 6.55574 6.55574 11.4511 3.48779 17.4723C0 24.3175 0 33.2783 0 51.2V298.8C0 316.722 0 325.683 3.48779 332.528C6.55574 338.549 11.4511 343.444 17.4723 346.512C24.3175 350 33.2783 350 51.2001 350H359.969C377.891 350 386.852 350 393.697 346.512C399.718 343.444 404.614 338.549 407.682 332.528C411.169 325.683 411.169 316.722 411.169 298.8V51.2C411.169 33.2783 411.169 24.3175 407.682 17.4723C404.614 11.4511 399.718 6.55574 393.697 3.48779C386.852 0 377.891 0 359.969 0H224.02Z" fill="var(--fill-0, #11201C)" fill-opacity="0.5"/>
</svg>
