<svg preserveAspectRatio="none" width="100%" height="100%" overflow="visible" style="display: block;" viewBox="0 0 302 350" fill="none" xmlns="http://www.w3.org/2000/svg">
<path id="Vector 88" d="M224.02 0H51.2C33.2783 0 24.3175 0 17.4723 3.48779C11.4511 6.55574 6.55574 11.4511 3.48779 17.4723C0 24.3175 0 33.2783 0 51.2V298.8C0 316.722 0 325.683 3.48779 332.528C6.55574 338.549 11.4511 343.444 17.4723 346.512C24.3175 350 33.2783 350 51.2 350H250.8C268.722 350 277.683 350 284.528 346.512C290.549 343.444 295.444 338.549 298.512 332.528C302 325.683 302 316.722 302 298.8V51.2C302 33.2783 302 24.3175 298.512 17.4723C295.444 11.4511 290.549 6.55574 284.528 3.48779C277.683 0 268.722 0 250.8 0H224.02Z" fill="var(--fill-0, #11201C)" fill-opacity="0.5"/>
</svg>
