<svg width="40" height="32" viewBox="4.5 7.5 40 32" fill="none" xmlns="http://www.w3.org/2000/svg">
<g id="icon youtube">
<path id="icon telegram" d="M24.5001 7.49902C26.2101 7.49902 27.9641 7.54323 29.6641 7.61523L31.6719 7.71094L33.5938 7.8252L35.3936 7.94727L37.0381 8.0752C38.8225 8.211 40.502 8.9723 41.7803 10.2246C43.0584 11.4769 43.854 13.1399 44.0264 14.9209L44.1065 15.7715L44.2559 17.5908C44.3959 19.4768 44.5001 21.533 44.5001 23.499C44.5001 25.465 44.3959 27.5212 44.2559 29.4072L44.1065 31.2266L44.0264 32.0771C43.854 33.8586 43.058 35.5221 41.7794 36.7744C40.5007 38.0268 38.8209 38.7875 37.0362 38.9229L35.3965 39.0488L33.5958 39.1729L31.6719 39.2871L29.6641 39.3828C27.9438 39.4573 26.222 39.4962 24.5001 39.499C22.7781 39.4962 21.0563 39.4573 19.336 39.3828L17.3282 39.2871L15.4063 39.1729L13.6065 39.0488L11.962 38.9229C10.1776 38.787 8.49808 38.0257 7.21979 36.7734C5.94172 35.5212 5.14608 33.8582 4.97369 32.0771L4.89362 31.2266L4.7442 29.4072C4.59187 27.4415 4.51034 25.4706 4.50006 23.499C4.50006 21.533 4.6042 19.4768 4.7442 17.5908L4.89362 15.7715L4.97369 14.9209C5.14603 13.14 5.94191 11.4769 7.21979 10.2246C8.49764 8.97251 10.1762 8.21143 11.96 8.0752L13.6016 7.94727L15.4024 7.8252L17.3262 7.71094L19.334 7.61523C21.0551 7.54069 22.7774 7.5018 24.5001 7.49902ZM26.2003 30.4287L26.1505 30.4541L26.1368 30.457L26.127 30.4541L26.0772 30.4287C26.07 30.4265 26.0643 30.4279 26.0606 30.4326L26.0577 30.4395L26.046 30.7471L26.0499 30.7617L26.0567 30.7705L26.129 30.8242L26.1397 30.8262L26.1475 30.8242L26.2208 30.7705L26.2286 30.7588L26.2315 30.7471L26.2198 30.4404C26.218 30.4329 26.214 30.4288 26.2081 30.4277L26.2003 30.4287ZM25.876 30.3525L25.8712 30.3623L25.8477 30.8027C25.8482 30.8113 25.852 30.8174 25.8594 30.8203L25.8702 30.8184L26.0098 30.752L26.0167 30.7461L26.0196 30.7383L26.0313 30.4297L26.0294 30.4209L26.0225 30.4141L25.8946 30.3477C25.8915 30.3457 25.8874 30.3449 25.8839 30.3457C25.8804 30.3465 25.878 30.3495 25.876 30.3525ZM26.3839 30.3477L26.2549 30.4141L26.2471 30.4219L26.2452 30.4297L26.2579 30.7383L26.2618 30.7471L26.2667 30.752L26.4073 30.8184C26.416 30.8207 26.4222 30.8187 26.4268 30.8125L26.4297 30.8027L26.4063 30.3623C26.404 30.3538 26.3994 30.3487 26.3926 30.3467L26.3839 30.3477ZM30.9434 16.3555C30.7584 16.3296 30.5697 16.355 30.3975 16.4297L18.4864 21.5986C17.6561 21.959 17.6139 23.197 18.4874 23.5703C19.1337 23.8466 19.9256 24.0733 20.7794 24.2197C21.2474 24.3001 21.639 24.2198 22.3897 23.749C23.2409 23.2149 25.8155 21.317 27.419 20.0693C28.0646 19.5669 28.3143 19.8825 27.7676 20.4287C26.3747 21.8191 23.9371 24.1575 23.7833 24.7803C23.605 25.5081 25.0555 26.531 25.5294 26.8506C26.4767 27.4888 27.5302 28.1011 28.2393 28.498C29.0869 28.9721 30.1006 28.4259 30.254 27.4736L31.834 17.5977C31.8643 17.4078 31.8449 17.2126 31.7774 17.0332C31.7099 16.8539 31.5967 16.6963 31.4503 16.5771C31.3037 16.458 31.1284 16.3813 30.9434 16.3555Z" fill="var(--fill-0, #F4F2ED)"/>
</g>
</svg>
