<svg  width="100%" height="100%" overflow="visible" style="display: block;" viewBox="0 0 40 32" fill="none" xmlns="http://www.w3.org/2000/svg">
<g id="Group">
<path id="Vector" fill-rule="evenodd" clip-rule="evenodd" d="M20 0C21.71 0 23.464 0.0440002 25.164 0.116L27.172 0.212L29.094 0.326L30.894 0.448L32.538 0.576C34.3224 0.711783 36.0016 1.47287 37.2799 2.7252C38.5582 3.97754 39.3536 5.64079 39.526 7.422L39.606 8.272L39.756 10.092C39.896 11.978 40 14.034 40 16C40 17.966 39.896 20.022 39.756 21.908L39.606 23.728L39.526 24.578C39.3536 26.3595 38.5579 28.023 37.2792 29.2754C36.0004 30.5278 34.3207 31.2887 32.536 31.424L30.896 31.55L29.096 31.674L27.172 31.788L25.164 31.884C23.4437 31.9585 21.722 31.9972 20 32C18.278 31.9972 16.5563 31.9585 14.836 31.884L12.828 31.788L10.906 31.674L9.106 31.55L7.462 31.424C5.67763 31.2882 3.9984 30.5271 2.72009 29.2748C1.44178 28.0225 0.646382 26.3592 0.474 24.578L0.394 23.728L0.244 21.908C0.0916655 19.9422 0.0102793 17.9716 0 16C0 14.034 0.104 11.978 0.244 10.092L0.394 8.272L0.474 7.422C0.646315 5.64111 1.44142 3.9781 2.71933 2.72581C3.99723 1.47352 5.67598 0.712233 7.46 0.576L9.102 0.448L10.902 0.326L12.826 0.212L14.834 0.116C16.555 0.0414544 18.2774 0.00277916 20 0ZM16 11.15V20.85C16 21.774 17 22.35 17.8 21.89L26.2 17.04C26.3828 16.9348 26.5346 16.7832 26.6402 16.6007C26.7458 16.4181 26.8013 16.2109 26.8013 16C26.8013 15.7891 26.7458 15.5819 26.6402 15.3993C26.5346 15.2168 26.3828 15.0652 26.2 14.96L17.8 10.112C17.6175 10.0066 17.4105 9.9512 17.1998 9.95123C16.9891 9.95126 16.7821 10.0068 16.5997 10.1122C16.4172 10.2176 16.2657 10.3692 16.1605 10.5517C16.0552 10.7343 15.9999 10.9413 16 11.152V11.15Z" fill="var(--fill-0, #F4F2ED)"/>
</g>
</svg>
